Aashiqui 2 2013 Hindi Movies DvDScr Sample Included Best Quality ~ rDX

Screen Shots :
 
http://myimghosting.serveftp.com/13/Aashiqui2.html
 
http://myimghost.cwahi.net/Aashiqui2.html


Format                                   : MPEG-PS
File size                                : 691 MiB
Duration                                 : 2h 14mn
Overall bit rate mode                    : Variable
Overall bit rate                         : 717 Kbps

Video
ID                                       : 224 (0xE0)
Format                                   : MPEG Video
Format version                           : Version 2
Format profile                           : Main@Main
Format settings, BVOP                    : Yes
Format settings, Matrix                  : Default
Format settings, GOP                     : M=3, N=13
Duration                                 : 2h 14mn
Bit rate mode                            : Variable
Bit rate                                 : 575 Kbps
Maximum bit rate                         : 9 680 Kbps
Width                                    : 352 pixels
Height                                   : 288 pixels
Display aspect ratio                     : 4:3
Frame rate                               : 25.000 fps
Standard                                 : PAL
Color space                              : YUV
Chroma subsampling                       : 4:2:0
Bit depth                                : 8 bits
Scan type                                : Progressive
Compression mode                         : Lossy
Bits/(Pixel*Frame)                       : 0.227
Stream size                              : 554 MiB (80%)

Audio
ID                                       : 192 (0xC0)
Format                                   : MPEG Audio
Format version                           : Version 1
Format profile                           : Layer 2
Duration                                 : 2h 14mn
Bit rate mode                            : Constant
Bit rate                                 : 128 Kbps
Channel(s)                               : 2 channels
Sampling rate                            : 48.0 KHz
Compression mode                         : Lossy
Stream size                              : 123 MiB (18%)

